<svg width="204" height="192" viewBox="0 0 204 192" fill="none" xmlns="http://www.w3.org/2000/svg">
<path d="M0 41C0 32.1634 7.16344 25 16 25H140C175.346 25 204 53.6538 204 89V151C204 159.837 196.837 167 188 167H64C28.6538 167 0 138.346 0 103V41Z" fill="#0E0E0E"/>
<mask id="path-2-inside-1_30_8" fill="white">
<path d="M143.384 141.896C138.008 141.896 133.272 141 129.176 139.208C125.165 137.416 122.051 134.899 119.832 131.656C117.613 128.413 116.504 124.701 116.504 120.52C116.504 119.411 116.547 118.557 116.632 117.96H125.464C125.293 120.691 125.763 123.336 126.872 125.896C128.067 128.371 130.072 130.461 132.888 132.168C135.789 133.789 139.501 134.6 144.024 134.6C150.339 134.6 155.373 133.021 159.128 129.864C162.883 126.707 164.76 122.44 164.76 117.064C164.76 113.821 163.864 111.133 162.072 109C160.365 106.781 158.232 104.989 155.672 103.624C153.112 102.173 149.613 100.552 145.176 98.76C139.971 96.712 135.832 94.8347 132.76 93.128C129.688 91.336 127.128 88.904 125.08 85.832C123.117 82.76 122.307 78.8347 122.648 74.056C122.819 69.448 124.184 65.3947 126.744 61.896C129.389 58.312 132.931 55.5387 137.368 53.576C141.891 51.528 147.011 50.504 152.728 50.504C158.36 50.504 163.181 51.4853 167.192 53.448C171.288 55.3253 174.317 57.928 176.28 61.256C178.328 64.584 179.224 68.2533 178.968 72.264H169.624C169.795 69.96 169.24 67.6987 167.96 65.48C166.765 63.2613 164.803 61.4693 162.072 60.104C159.427 58.6533 156.141 57.928 152.216 57.928C146.157 57.928 141.208 59.4213 137.368 62.408C133.528 65.3093 131.608 69.2773 131.608 74.312C131.608 77.2987 132.461 79.816 134.168 81.864C135.875 83.912 137.965 85.6187 140.44 86.984C142.915 88.3493 146.328 89.928 150.68 91.72C155.715 93.768 159.768 95.688 162.84 97.48C165.997 99.272 168.643 101.661 170.776 104.648C172.995 107.635 174.104 111.389 174.104 115.912C174.104 117.021 174.061 117.875 173.976 118.472C173.635 122.824 172.184 126.792 169.624 130.376C167.064 133.96 163.523 136.776 159 138.824C154.563 140.872 149.357 141.896 143.384 141.896Z"/>
</mask>
<path d="M129.176 139.208L128.36 141.034L128.367 141.037L128.374 141.04L129.176 139.208ZM119.832 131.656L121.483 130.527L119.832 131.656ZM116.632 117.96V115.96H114.897L114.652 117.677L116.632 117.96ZM125.464 117.96L127.46 118.085L127.593 115.96H125.464V117.96ZM126.872 125.896L125.037 126.691L125.053 126.729L125.071 126.765L126.872 125.896ZM132.888 132.168L131.851 133.878L131.882 133.897L131.912 133.914L132.888 132.168ZM159.128 129.864L157.841 128.333L159.128 129.864ZM162.072 109L160.487 110.219L160.513 110.253L160.541 110.286L162.072 109ZM155.672 103.624L154.686 105.364L154.708 105.377L154.731 105.389L155.672 103.624ZM145.176 98.76L145.925 96.9055L145.917 96.9022L145.908 96.8989L145.176 98.76ZM132.76 93.128L131.752 94.8556L131.77 94.8661L131.789 94.8763L132.76 93.128ZM125.08 85.832L123.395 86.9088L123.405 86.9252L123.416 86.9414L125.08 85.832ZM122.648 74.056L124.643 74.1985L124.645 74.1643L124.647 74.13L122.648 74.056ZM126.744 61.896L125.135 60.7083L125.13 60.715L126.744 61.896ZM137.368 53.576L138.177 55.4051L138.185 55.4015L138.193 55.3979L137.368 53.576ZM167.192 53.448L166.313 55.2444L166.336 55.2556L166.359 55.2661L167.192 53.448ZM176.28 61.256L174.557 62.272L174.567 62.2882L174.577 62.3042L176.28 61.256ZM178.968 72.264V74.264H180.844L180.964 72.3914L178.968 72.264ZM169.624 72.264L167.629 72.1163L167.47 74.264H169.624V72.264ZM167.96 65.48L166.199 66.4282L166.213 66.454L166.228 66.4794L167.96 65.48ZM162.072 60.104L161.11 61.8576L161.144 61.8759L161.178 61.8929L162.072 60.104ZM137.368 62.408L138.574 64.0037L138.585 63.9953L138.596 63.9867L137.368 62.408ZM134.168 81.864L132.632 83.1444L132.632 83.1444L134.168 81.864ZM150.68 91.72L149.918 93.5694L149.926 93.5726L150.68 91.72ZM162.84 97.48L161.832 99.2076L161.842 99.2135L161.853 99.2194L162.84 97.48ZM170.776 104.648L169.149 105.81L169.159 105.826L169.171 105.841L170.776 104.648ZM173.976 118.472L171.996 118.189L171.987 118.252L171.982 118.316L173.976 118.472ZM169.624 130.376L167.997 129.214L169.624 130.376ZM159 138.824L158.175 137.002L158.168 137.005L158.162 137.008L159 138.824ZM143.384 139.896C138.229 139.896 133.775 139.037 129.978 137.376L128.374 141.04C132.769 142.963 137.787 143.896 143.384 143.896V139.896ZM129.992 137.382C126.278 135.722 123.469 133.429 121.483 130.527L118.181 132.785C120.633 136.368 124.053 139.11 128.36 141.034L129.992 137.382ZM121.483 130.527C119.506 127.638 118.504 124.326 118.504 120.52H114.504C114.504 125.077 115.72 129.188 118.181 132.785L121.483 130.527ZM118.504 120.52C118.504 119.441 118.547 118.699 118.612 118.243L114.652 117.677C114.547 118.416 114.504 119.38 114.504 120.52H118.504ZM116.632 119.96H125.464V115.96H116.632V119.96ZM123.468 117.835C123.277 120.887 123.805 123.847 125.037 126.691L128.707 125.101C127.721 122.825 127.31 120.494 127.46 118.085L123.468 117.835ZM125.071 126.765C126.465 129.652 128.771 132.012 131.851 133.878L133.925 130.458C131.373 128.911 129.669 127.089 128.673 125.026L125.071 126.765ZM131.912 133.914C135.2 135.751 139.278 136.6 144.024 136.6V132.6C139.725 132.6 136.378 131.827 133.864 130.422L131.912 133.914ZM144.024 136.6C150.672 136.6 156.207 134.933 160.415 131.395L157.841 128.333C154.54 131.109 150.006 132.6 144.024 132.6V136.6ZM160.415 131.395C164.669 127.818 166.76 122.966 166.76 117.064H162.76C162.76 121.914 161.097 125.595 157.841 128.333L160.415 131.395ZM166.76 117.064C166.76 113.432 165.747 110.265 163.603 107.714L160.541 110.286C161.981 112.002 162.76 114.211 162.76 117.064H166.76ZM163.657 107.781C161.771 105.328 159.415 103.353 156.613 101.859L154.731 105.389C157.049 106.625 158.96 108.235 160.487 110.219L163.657 107.781ZM156.658 101.884C153.989 100.372 150.4 98.7128 145.925 96.9055L144.427 100.614C148.827 102.391 152.235 103.975 154.686 105.364L156.658 101.884ZM145.908 96.8989C140.743 94.8667 136.695 93.0261 133.731 91.3797L131.789 94.8763C134.969 96.6432 139.198 98.5573 144.444 100.621L145.908 96.8989ZM133.768 91.4004C130.969 89.7678 128.63 87.5512 126.744 84.7226L123.416 86.9414C125.626 90.2568 128.407 92.9042 131.752 94.8556L133.768 91.4004ZM126.765 84.7552C125.098 82.1449 124.323 78.6825 124.643 74.1985L120.653 73.9135C120.291 78.9869 121.137 83.3751 123.395 86.9088L126.765 84.7552ZM124.647 74.13C124.804 69.8944 126.049 66.2324 128.358 63.077L125.13 60.715C122.319 64.5569 120.834 69.0016 120.649 73.982L124.647 74.13ZM128.353 63.0837C130.774 59.804 134.028 57.24 138.177 55.4051L136.559 51.7469C131.833 53.8373 128.005 56.82 125.135 60.7083L128.353 63.0837ZM138.193 55.3979C142.42 53.4838 147.252 52.504 152.728 52.504V48.504C146.769 48.504 141.361 49.5722 136.543 51.7541L138.193 55.3979ZM152.728 52.504C158.133 52.504 162.638 53.446 166.313 55.2444L168.071 51.6516C163.725 49.5246 158.587 48.504 152.728 48.504V52.504ZM166.359 55.2661C170.147 57.0023 172.835 59.3517 174.557 62.272L178.003 60.24C175.8 56.5043 172.429 53.6483 168.025 51.6299L166.359 55.2661ZM174.577 62.3042C176.401 65.2695 177.203 68.5261 176.972 72.1366L180.964 72.3914C181.245 67.9806 180.255 63.8985 177.983 60.2078L174.577 62.3042ZM178.968 70.264H169.624V74.264H178.968V70.264ZM171.619 72.4117C171.822 69.6647 171.15 67.0073 169.692 64.4806L166.228 66.4794C167.33 68.39 167.767 70.2553 167.629 72.1163L171.619 72.4117ZM169.721 64.5318C168.293 61.8794 165.986 59.8251 162.966 58.3151L161.178 61.8929C163.619 63.1136 165.238 64.6433 166.199 66.4282L169.721 64.5318ZM163.034 58.3504C160.018 56.6966 156.379 55.928 152.216 55.928V59.928C155.903 59.928 158.835 60.61 161.11 61.8576L163.034 58.3504ZM152.216 55.928C145.824 55.928 140.41 57.5083 136.14 60.8293L138.596 63.9867C142.006 61.3344 146.491 59.928 152.216 59.928V55.928ZM136.162 60.8123C131.796 64.1115 129.608 68.6841 129.608 74.312H133.608C133.608 69.8706 135.26 66.5072 138.574 64.0037L136.162 60.8123ZM129.608 74.312C129.608 77.7066 130.589 80.6935 132.632 83.1444L135.704 80.5836C134.334 78.9385 133.608 76.8907 133.608 74.312H129.608ZM132.632 83.1444C134.507 85.3947 136.795 87.257 139.474 88.7352L141.406 85.2328C139.136 83.9803 137.243 82.4293 135.704 80.5836L132.632 83.1444ZM139.474 88.7352C142.044 90.1531 145.536 91.7647 149.918 93.5694L151.442 89.8706C147.12 88.0912 143.785 86.5456 141.406 85.2328L139.474 88.7352ZM149.926 93.5726C154.914 95.6015 158.873 97.4811 161.832 99.2076L163.848 95.7524C160.663 93.8949 156.515 91.9345 151.434 89.8674L149.926 93.5726ZM161.853 99.2194C164.754 100.866 167.182 103.058 169.149 105.81L172.403 103.486C170.103 100.265 167.24 97.6777 163.827 95.7406L161.853 99.2194ZM169.171 105.841C171.082 108.413 172.104 111.724 172.104 115.912H176.104C176.104 111.054 174.908 106.856 172.381 103.455L169.171 105.841ZM172.104 115.912C172.104 116.991 172.061 117.733 171.996 118.189L175.956 118.755C176.061 118.016 176.104 117.052 176.104 115.912H172.104ZM171.982 118.316C171.669 122.302 170.347 125.923 167.997 129.214L171.251 131.538C174.021 127.661 175.6 123.346 175.97 118.628L171.982 118.316ZM167.997 129.214C165.666 132.476 162.418 135.081 158.175 137.002L159.825 140.646C164.627 138.471 168.462 135.444 171.251 131.538L167.997 129.214ZM158.162 137.008C154.039 138.911 149.131 139.896 143.384 139.896V143.896C149.584 143.896 155.086 142.833 159.838 140.64L158.162 137.008Z" fill="#78F577" mask="url(#path-2-inside-1_30_8)"/>
<g filter="url(#filter0_d_30_8)">
<path d="M77.856 94.664L104.48 141H74.144L52.768 101.32L45.856 141H20.64L36.64 50.76H61.728L54.816 89.8L89.76 50.76H118.688L77.856 94.664Z" fill="#78F577"/>
</g>
<defs>
<filter id="filter0_d_30_8" x="12.64" y="42.76" width="114.048" height="106.24" filterUnits="userSpaceOnUse" color-interpolation-filters="sRGB">
<feFlood flood-opacity="0" result="BackgroundImageFix"/>
<feColorMatrix in="SourceAlpha" type="matrix" values="0 0 0 0 0 0 0 0 0 0 0 0 0 0 0 0 0 0 127 0" result="hardAlpha"/>
<feOffset/>
<feGaussianBlur stdDeviation="4"/>
<feComposite in2="hardAlpha" operator="out"/>
<feColorMatrix type="matrix" values="0 0 0 0 0.470588 0 0 0 0 0.960784 0 0 0 0 0.466667 0 0 0 0.5 0"/>
<feBlend mode="normal" in2="BackgroundImageFix" result="effect1_dropShadow_30_8"/>
<feBlend mode="normal" in="SourceGraphic" in2="effect1_dropShadow_30_8" result="shape"/>
</filter>
</defs>
</svg>
