<svg width="293" height="96" viewBox="0 0 293 96" fill="none" xmlns="http://www.w3.org/2000/svg">
<path d="M0 20C0 15.5817 3.58172 12 8 12H261C278.673 12 293 26.3269 293 44V76C293 80.4183 289.418 84 285 84H32C14.3269 84 0 69.6731 0 52V20Z" fill="#0E0E0E"/>
<g filter="url(#filter0_d_44_22)">
<path d="M169.232 70.448C165.093 70.448 161.723 69.4667 159.12 67.504C156.56 65.4987 155.28 62.832 155.28 59.504C155.28 58.864 155.301 58.3947 155.344 58.096H161.104C160.976 60.1867 161.616 61.9787 163.024 63.472C164.432 64.9653 166.587 65.712 169.488 65.712C172.389 65.712 174.693 65.0507 176.4 63.728C178.107 62.4053 178.96 60.5493 178.96 58.16C178.96 56.7093 178.533 55.4933 177.68 54.512C176.869 53.488 175.845 52.656 174.608 52.016C173.413 51.3333 171.771 50.5867 169.68 49.776C167.12 48.752 165.051 47.792 163.472 46.896C161.936 46 160.635 44.784 159.568 43.248C158.501 41.712 158.011 39.7707 158.096 37.424C158.096 34.9493 158.757 32.752 160.08 30.832C161.403 28.912 163.216 27.44 165.52 26.416C167.867 25.3493 170.533 24.816 173.52 24.816C176.421 24.816 178.917 25.3067 181.008 26.288C183.141 27.2693 184.741 28.6347 185.808 30.384C186.875 32.1333 187.344 34.096 187.216 36.272H181.136C181.221 35.1627 180.965 34.096 180.368 33.072C179.813 32.048 178.917 31.216 177.68 30.576C176.485 29.936 174.992 29.616 173.2 29.616C170.427 29.616 168.187 30.2773 166.48 31.6C164.816 32.88 163.984 34.6507 163.984 36.912C163.984 38.2347 164.368 39.3867 165.136 40.368C165.947 41.3067 166.949 42.1173 168.144 42.8C169.339 43.44 170.981 44.208 173.072 45.104C175.589 46.1707 177.637 47.1733 179.216 48.112C180.837 49.008 182.203 50.224 183.312 51.76C184.421 53.296 184.976 55.216 184.976 57.52C184.976 59.9947 184.336 62.2133 183.056 64.176C181.776 66.096 179.941 67.632 177.552 68.784C175.163 69.8933 172.389 70.448 169.232 70.448ZM196.594 62.896C196.498 63.472 196.45 63.968 196.45 64.384C196.45 65.408 196.722 66.128 197.266 66.544C197.842 66.928 198.77 67.12 200.05 67.12H203.122L202.594 70H198.994C197.01 70 195.522 69.616 194.53 68.848C193.538 68.08 193.042 66.816 193.042 65.056C193.042 64.352 193.106 63.632 193.234 62.896L196.114 46.624H192.466L192.994 43.792H196.642L197.794 37.216H201.154L200.002 43.792H207.25L206.722 46.624H199.474L196.594 62.896ZM208.903 56.848C209.383 54.16 210.343 51.808 211.783 49.792C213.223 47.744 214.983 46.176 217.063 45.088C219.175 43.968 221.431 43.408 223.831 43.408C226.327 43.408 228.375 43.984 229.975 45.136C231.575 46.288 232.615 47.76 233.095 49.552L234.103 43.792H237.463L232.855 70H229.495L230.503 64.192C229.415 65.984 227.847 67.472 225.799 68.656C223.783 69.808 221.527 70.384 219.031 70.384C216.951 70.384 215.127 69.952 213.559 69.088C211.991 68.224 210.775 67.008 209.911 65.44C209.047 63.84 208.615 61.968 208.615 59.824C208.615 58.896 208.711 57.904 208.903 56.848ZM231.799 56.896C231.959 56 232.039 55.2 232.039 54.496C232.039 52 231.287 50.016 229.783 48.544C228.279 47.072 226.327 46.336 223.927 46.336C222.071 46.336 220.327 46.752 218.695 47.584C217.095 48.416 215.735 49.632 214.615 51.232C213.495 52.8 212.743 54.672 212.359 56.848C212.199 57.808 212.119 58.624 212.119 59.296C212.119 61.824 212.855 63.824 214.327 65.296C215.831 66.736 217.783 67.456 220.183 67.456C221.975 67.456 223.687 67.024 225.319 66.16C226.983 65.296 228.375 64.064 229.495 62.464C230.647 60.864 231.415 59.008 231.799 56.896ZM246.094 62.896C245.998 63.472 245.95 63.968 245.95 64.384C245.95 65.408 246.222 66.128 246.766 66.544C247.342 66.928 248.27 67.12 249.55 67.12H252.622L252.094 70H248.494C246.51 70 245.022 69.616 244.03 68.848C243.038 68.08 242.542 66.816 242.542 65.056C242.542 64.352 242.606 63.632 242.734 62.896L245.614 46.624H241.966L242.494 43.792H246.142L247.294 37.216H250.654L249.502 43.792H256.75L256.222 46.624H248.974L246.094 62.896ZM266.371 70.384C263.715 70.384 261.555 69.776 259.891 68.56C258.227 67.312 257.395 65.616 257.395 63.472C257.395 63.088 257.411 62.8 257.443 62.608H260.707C260.579 64.144 261.027 65.376 262.051 66.304C263.075 67.232 264.579 67.696 266.563 67.696C268.579 67.696 270.195 67.28 271.411 66.448C272.627 65.584 273.235 64.448 273.235 63.04C273.235 62.208 272.979 61.504 272.467 60.928C271.955 60.352 271.315 59.888 270.547 59.536C269.811 59.152 268.771 58.72 267.427 58.24C265.763 57.632 264.419 57.072 263.395 56.56C262.403 56.016 261.539 55.28 260.803 54.352C260.099 53.392 259.747 52.192 259.747 50.752C259.747 49.312 260.163 48.032 260.995 46.912C261.827 45.792 262.963 44.928 264.403 44.32C265.875 43.712 267.539 43.408 269.395 43.408C271.987 43.408 274.099 44.048 275.731 45.328C277.395 46.608 278.227 48.304 278.227 50.416C278.227 50.864 278.211 51.2 278.179 51.424H275.011C275.043 51.296 275.059 51.088 275.059 50.8C275.059 49.392 274.499 48.256 273.379 47.392C272.291 46.528 270.883 46.096 269.155 46.096C267.427 46.096 265.987 46.512 264.835 47.344C263.715 48.144 263.155 49.232 263.155 50.608C263.155 51.536 263.427 52.32 263.971 52.96C264.515 53.568 265.187 54.064 265.987 54.448C266.787 54.832 267.859 55.28 269.203 55.792C270.803 56.4 272.083 56.96 273.043 57.472C274.035 57.984 274.867 58.688 275.539 59.584C276.211 60.48 276.547 61.6 276.547 62.944C276.547 65.216 275.603 67.024 273.715 68.368C271.827 69.712 269.379 70.384 266.371 70.384Z" fill="white"/>
</g>
<g filter="url(#filter1_d_44_22)">
<path d="M38.4401 47.088L52.4561 70H39.0801L27.4961 50.16L23.9761 70H13.0321L20.9681 25.072H31.9121L28.4561 44.784L46.9521 25.072H59.7521L38.4401 47.088ZM69.7211 47.008C70.7451 45.76 72.0251 44.752 73.5611 43.984C75.1291 43.216 76.8571 42.832 78.7451 42.832C81.6251 42.832 83.9451 43.776 85.7051 45.664C87.4971 47.552 88.3931 50.112 88.3931 53.344C88.3931 54.336 88.2971 55.408 88.1051 56.56C87.6251 59.312 86.6811 61.744 85.2731 63.856C83.8651 65.936 82.1691 67.552 80.1851 68.704C78.2011 69.824 76.1051 70.384 73.8971 70.384C72.0411 70.384 70.4731 70 69.1931 69.232C67.9131 68.464 66.9691 67.472 66.3611 66.256L63.4331 82.768H55.2251L62.1851 43.216H70.3931L69.7211 47.008ZM79.8011 56.56C79.8971 56.016 79.9451 55.52 79.9451 55.072C79.9451 53.472 79.4811 52.224 78.5531 51.328C77.6571 50.432 76.5051 49.984 75.0971 49.984C73.4651 49.984 71.9771 50.576 70.6331 51.76C69.2891 52.944 68.4251 54.56 68.0411 56.608C67.9451 57.184 67.8971 57.712 67.8971 58.192C67.8971 59.76 68.3451 60.992 69.2411 61.888C70.1371 62.784 71.2891 63.232 72.6971 63.232C74.3291 63.232 75.8171 62.64 77.1611 61.456C78.5371 60.24 79.4171 58.608 79.8011 56.56ZM102.299 70.384C99.9953 70.384 97.9473 69.92 96.1553 68.992C94.3633 68.064 92.9713 66.752 91.9793 65.056C91.0193 63.36 90.5393 61.392 90.5393 59.152C90.5393 56.112 91.2593 53.344 92.6992 50.848C94.1393 48.352 96.1233 46.4 98.6513 44.992C101.179 43.552 103.995 42.832 107.099 42.832C109.403 42.832 111.451 43.312 113.243 44.272C115.067 45.2 116.475 46.512 117.467 48.208C118.459 49.904 118.955 51.872 118.955 54.112C118.955 57.184 118.219 59.968 116.747 62.464C115.307 64.928 113.307 66.864 110.747 68.272C108.219 69.68 105.403 70.384 102.299 70.384ZM103.451 63.328C104.795 63.328 105.995 62.928 107.051 62.128C108.139 61.296 108.971 60.24 109.547 58.96C110.155 57.648 110.459 56.288 110.459 54.88C110.459 53.28 110.027 52.048 109.163 51.184C108.299 50.32 107.211 49.888 105.899 49.888C104.523 49.888 103.307 50.304 102.251 51.136C101.227 51.936 100.427 52.992 99.8513 54.304C99.2753 55.616 98.9873 56.992 98.9873 58.432C98.9873 60 99.4033 61.216 100.235 62.08C101.067 62.912 102.139 63.328 103.451 63.328ZM132.862 47.008C133.886 45.76 135.166 44.752 136.702 43.984C138.27 43.216 139.998 42.832 141.886 42.832C144.766 42.832 147.086 43.776 148.846 45.664C150.638 47.552 151.534 50.112 151.534 53.344C151.534 54.336 151.438 55.408 151.246 56.56C150.766 59.312 149.822 61.744 148.414 63.856C147.006 65.936 145.31 67.552 143.326 68.704C141.342 69.824 139.246 70.384 137.038 70.384C135.182 70.384 133.614 70 132.334 69.232C131.054 68.464 130.11 67.472 129.502 66.256L126.574 82.768H118.366L125.326 43.216H133.534L132.862 47.008ZM142.942 56.56C143.038 56.016 143.086 55.52 143.086 55.072C143.086 53.472 142.622 52.224 141.694 51.328C140.798 50.432 139.646 49.984 138.238 49.984C136.606 49.984 135.118 50.576 133.774 51.76C132.43 52.944 131.566 54.56 131.182 56.608C131.086 57.184 131.038 57.712 131.038 58.192C131.038 59.76 131.486 60.992 132.382 61.888C133.278 62.784 134.43 63.232 135.838 63.232C137.47 63.232 138.958 62.64 140.302 61.456C141.678 60.24 142.558 58.608 142.942 56.56Z" fill="#78F577"/>
</g>
<defs>
<filter id="filter0_d_44_22" x="149.28" y="18.816" width="134.947" height="57.632" filterUnits="userSpaceOnUse" color-interpolation-filters="sRGB">
<feFlood flood-opacity="0" result="BackgroundImageFix"/>
<feColorMatrix in="SourceAlpha" type="matrix" values="0 0 0 0 0 0 0 0 0 0 0 0 0 0 0 0 0 0 127 0" result="hardAlpha"/>
<feOffset/>
<feGaussianBlur stdDeviation="3"/>
<feComposite in2="hardAlpha" operator="out"/>
<feColorMatrix type="matrix" values="0 0 0 0 1 0 0 0 0 1 0 0 0 0 1 0 0 0 1 0"/>
<feBlend mode="normal" in2="BackgroundImageFix" result="effect1_dropShadow_44_22"/>
<feBlend mode="normal" in="SourceGraphic" in2="effect1_dropShadow_44_22" result="shape"/>
</filter>
<filter id="filter1_d_44_22" x="7.0321" y="19.072" width="150.502" height="69.696" filterUnits="userSpaceOnUse" color-interpolation-filters="sRGB">
<feFlood flood-opacity="0" result="BackgroundImageFix"/>
<feColorMatrix in="SourceAlpha" type="matrix" values="0 0 0 0 0 0 0 0 0 0 0 0 0 0 0 0 0 0 127 0" result="hardAlpha"/>
<feOffset/>
<feGaussianBlur stdDeviation="3"/>
<feComposite in2="hardAlpha" operator="out"/>
<feColorMatrix type="matrix" values="0 0 0 0 0.470588 0 0 0 0 0.960784 0 0 0 0 0.466667 0 0 0 1 0"/>
<feBlend mode="normal" in2="BackgroundImageFix" result="effect1_dropShadow_44_22"/>
<feBlend mode="normal" in="SourceGraphic" in2="effect1_dropShadow_44_22" result="shape"/>
</filter>
</defs>
</svg>
