<svg width="293" height="96" viewBox="0 0 293 96" fill="none" xmlns="http://www.w3.org/2000/svg">
<path d="M0 20C0 15.5817 3.58172 12 8 12H261C278.673 12 293 26.3269 293 44V76C293 80.4183 289.418 84 285 84H32C14.3269 84 0 69.6731 0 52V20Z" fill="#0E0E0E"/>
<path d="M38.2761 47.088L52.2921 70H38.9161L27.3321 50.16L23.8121 70H12.8681L20.8041 25.072H31.7481L28.2921 44.784L46.7881 25.072H59.5881L38.2761 47.088ZM69.5571 47.008C70.5811 45.76 71.8611 44.752 73.3971 43.984C74.9651 43.216 76.6931 42.832 78.5811 42.832C81.4611 42.832 83.7811 43.776 85.5411 45.664C87.3331 47.552 88.2291 50.112 88.2291 53.344C88.2291 54.336 88.1331 55.408 87.9411 56.56C87.4611 59.312 86.5171 61.744 85.1091 63.856C83.7011 65.936 82.0051 67.552 80.0211 68.704C78.0371 69.824 75.9411 70.384 73.7331 70.384C71.8771 70.384 70.3091 70 69.0291 69.232C67.7491 68.464 66.8051 67.472 66.1971 66.256L63.2691 82.768H55.0611L62.0211 43.216H70.2291L69.5571 47.008ZM79.6371 56.56C79.7331 56.016 79.7811 55.52 79.7811 55.072C79.7811 53.472 79.3171 52.224 78.3891 51.328C77.4931 50.432 76.3411 49.984 74.9331 49.984C73.3011 49.984 71.8131 50.576 70.4691 51.76C69.1251 52.944 68.2611 54.56 67.8771 56.608C67.7811 57.184 67.7331 57.712 67.7331 58.192C67.7331 59.76 68.1811 60.992 69.0771 61.888C69.9731 62.784 71.1251 63.232 72.5331 63.232C74.1651 63.232 75.6531 62.64 76.9971 61.456C78.3731 60.24 79.2531 58.608 79.6371 56.56ZM102.135 70.384C99.8312 70.384 97.7832 69.92 95.9912 68.992C94.1992 68.064 92.8072 66.752 91.8152 65.056C90.8552 63.36 90.3752 61.392 90.3752 59.152C90.3752 56.112 91.0952 53.344 92.5352 50.848C93.9752 48.352 95.9592 46.4 98.4872 44.992C101.015 43.552 103.831 42.832 106.935 42.832C109.239 42.832 111.287 43.312 113.079 44.272C114.903 45.2 116.311 46.512 117.303 48.208C118.295 49.904 118.791 51.872 118.791 54.112C118.791 57.184 118.055 59.968 116.583 62.464C115.143 64.928 113.143 66.864 110.583 68.272C108.055 69.68 105.239 70.384 102.135 70.384ZM103.287 63.328C104.631 63.328 105.831 62.928 106.887 62.128C107.975 61.296 108.807 60.24 109.383 58.96C109.991 57.648 110.295 56.288 110.295 54.88C110.295 53.28 109.863 52.048 108.999 51.184C108.135 50.32 107.047 49.888 105.735 49.888C104.359 49.888 103.143 50.304 102.087 51.136C101.063 51.936 100.263 52.992 99.6872 54.304C99.1112 55.616 98.8232 56.992 98.8232 58.432C98.8232 60 99.2392 61.216 100.071 62.08C100.903 62.912 101.975 63.328 103.287 63.328ZM132.698 47.008C133.722 45.76 135.002 44.752 136.538 43.984C138.106 43.216 139.834 42.832 141.722 42.832C144.602 42.832 146.922 43.776 148.682 45.664C150.474 47.552 151.37 50.112 151.37 53.344C151.37 54.336 151.274 55.408 151.082 56.56C150.602 59.312 149.658 61.744 148.25 63.856C146.842 65.936 145.146 67.552 143.162 68.704C141.178 69.824 139.082 70.384 136.874 70.384C135.018 70.384 133.45 70 132.17 69.232C130.89 68.464 129.946 67.472 129.338 66.256L126.41 82.768H118.202L125.162 43.216H133.37L132.698 47.008ZM142.778 56.56C142.874 56.016 142.922 55.52 142.922 55.072C142.922 53.472 142.458 52.224 141.53 51.328C140.634 50.432 139.482 49.984 138.074 49.984C136.442 49.984 134.954 50.576 133.61 51.76C132.266 52.944 131.402 54.56 131.018 56.608C130.922 57.184 130.874 57.712 130.874 58.192C130.874 59.76 131.322 60.992 132.218 61.888C133.114 62.784 134.266 63.232 135.674 63.232C137.306 63.232 138.794 62.64 140.138 61.456C141.514 60.24 142.394 58.608 142.778 56.56Z" fill="#78F577"/>
<path d="M169.404 70.448C165.265 70.448 161.894 69.4667 159.292 67.504C156.732 65.4987 155.452 62.832 155.452 59.504C155.452 58.864 155.473 58.3947 155.516 58.096H161.276C161.148 60.1867 161.788 61.9787 163.196 63.472C164.604 64.9653 166.758 65.712 169.66 65.712C172.561 65.712 174.865 65.0507 176.572 63.728C178.278 62.4053 179.132 60.5493 179.132 58.16C179.132 56.7093 178.705 55.4933 177.852 54.512C177.041 53.488 176.017 52.656 174.78 52.016C173.585 51.3333 171.942 50.5867 169.852 49.776C167.292 48.752 165.222 47.792 163.644 46.896C162.108 46 160.806 44.784 159.74 43.248C158.673 41.712 158.182 39.7707 158.268 37.424C158.268 34.9493 158.929 32.752 160.252 30.832C161.574 28.912 163.388 27.44 165.692 26.416C168.038 25.3493 170.705 24.816 173.692 24.816C176.593 24.816 179.089 25.3067 181.18 26.288C183.313 27.2693 184.913 28.6347 185.98 30.384C187.046 32.1333 187.516 34.096 187.388 36.272H181.308C181.393 35.1627 181.137 34.096 180.54 33.072C179.985 32.048 179.089 31.216 177.852 30.576C176.657 29.936 175.164 29.616 173.372 29.616C170.598 29.616 168.358 30.2773 166.652 31.6C164.988 32.88 164.156 34.6507 164.156 36.912C164.156 38.2347 164.54 39.3867 165.308 40.368C166.118 41.3067 167.121 42.1173 168.316 42.8C169.51 43.44 171.153 44.208 173.244 45.104C175.761 46.1707 177.809 47.1733 179.388 48.112C181.009 49.008 182.374 50.224 183.484 51.76C184.593 53.296 185.148 55.216 185.148 57.52C185.148 59.9947 184.508 62.2133 183.228 64.176C181.948 66.096 180.113 67.632 177.724 68.784C175.334 69.8933 172.561 70.448 169.404 70.448ZM196.766 62.896C196.67 63.472 196.622 63.968 196.622 64.384C196.622 65.408 196.894 66.128 197.438 66.544C198.014 66.928 198.942 67.12 200.222 67.12H203.294L202.766 70H199.166C197.182 70 195.694 69.616 194.702 68.848C193.71 68.08 193.214 66.816 193.214 65.056C193.214 64.352 193.278 63.632 193.406 62.896L196.286 46.624H192.638L193.166 43.792H196.814L197.966 37.216H201.326L200.174 43.792H207.422L206.894 46.624H199.646L196.766 62.896ZM209.075 56.848C209.555 54.16 210.515 51.808 211.955 49.792C213.395 47.744 215.155 46.176 217.235 45.088C219.347 43.968 221.603 43.408 224.003 43.408C226.499 43.408 228.547 43.984 230.147 45.136C231.747 46.288 232.787 47.76 233.267 49.552L234.275 43.792H237.635L233.027 70H229.667L230.675 64.192C229.587 65.984 228.019 67.472 225.971 68.656C223.955 69.808 221.699 70.384 219.203 70.384C217.123 70.384 215.299 69.952 213.731 69.088C212.163 68.224 210.947 67.008 210.083 65.44C209.219 63.84 208.787 61.968 208.787 59.824C208.787 58.896 208.883 57.904 209.075 56.848ZM231.971 56.896C232.131 56 232.211 55.2 232.211 54.496C232.211 52 231.459 50.016 229.955 48.544C228.451 47.072 226.499 46.336 224.099 46.336C222.243 46.336 220.499 46.752 218.867 47.584C217.267 48.416 215.907 49.632 214.787 51.232C213.667 52.8 212.915 54.672 212.531 56.848C212.371 57.808 212.291 58.624 212.291 59.296C212.291 61.824 213.027 63.824 214.499 65.296C216.003 66.736 217.955 67.456 220.355 67.456C222.147 67.456 223.859 67.024 225.491 66.16C227.155 65.296 228.547 64.064 229.667 62.464C230.819 60.864 231.587 59.008 231.971 56.896ZM246.266 62.896C246.17 63.472 246.122 63.968 246.122 64.384C246.122 65.408 246.394 66.128 246.938 66.544C247.514 66.928 248.442 67.12 249.722 67.12H252.794L252.266 70H248.666C246.682 70 245.194 69.616 244.202 68.848C243.21 68.08 242.714 66.816 242.714 65.056C242.714 64.352 242.778 63.632 242.906 62.896L245.786 46.624H242.138L242.666 43.792H246.314L247.466 37.216H250.826L249.674 43.792H256.922L256.394 46.624H249.146L246.266 62.896ZM266.543 70.384C263.887 70.384 261.727 69.776 260.063 68.56C258.399 67.312 257.567 65.616 257.567 63.472C257.567 63.088 257.583 62.8 257.615 62.608H260.879C260.751 64.144 261.199 65.376 262.223 66.304C263.247 67.232 264.751 67.696 266.735 67.696C268.751 67.696 270.367 67.28 271.583 66.448C272.799 65.584 273.407 64.448 273.407 63.04C273.407 62.208 273.151 61.504 272.639 60.928C272.127 60.352 271.487 59.888 270.719 59.536C269.983 59.152 268.943 58.72 267.599 58.24C265.935 57.632 264.591 57.072 263.567 56.56C262.575 56.016 261.711 55.28 260.975 54.352C260.271 53.392 259.919 52.192 259.919 50.752C259.919 49.312 260.335 48.032 261.167 46.912C261.999 45.792 263.135 44.928 264.575 44.32C266.047 43.712 267.711 43.408 269.567 43.408C272.159 43.408 274.271 44.048 275.903 45.328C277.567 46.608 278.399 48.304 278.399 50.416C278.399 50.864 278.383 51.2 278.351 51.424H275.183C275.215 51.296 275.231 51.088 275.231 50.8C275.231 49.392 274.671 48.256 273.551 47.392C272.463 46.528 271.055 46.096 269.327 46.096C267.599 46.096 266.159 46.512 265.007 47.344C263.887 48.144 263.327 49.232 263.327 50.608C263.327 51.536 263.599 52.32 264.143 52.96C264.687 53.568 265.359 54.064 266.159 54.448C266.959 54.832 268.031 55.28 269.375 55.792C270.975 56.4 272.255 56.96 273.215 57.472C274.207 57.984 275.039 58.688 275.711 59.584C276.383 60.48 276.719 61.6 276.719 62.944C276.719 65.216 275.775 67.024 273.887 68.368C271.999 69.712 269.551 70.384 266.543 70.384Z" fill="white"/>
</svg>
